HIERARCHY
ROOT Hips
{
  OFFSET -125.086 92.215 135.881
  CHANNELS 6 Xposition Yposition Zposition Zrotation Xrotation Yrotation
  JOINT LeftUpLeg
  {
    OFFSET 8.64259 1.95398 -2.38835
    CHANNELS 3 Zrotation Xrotation Yrotation
    JOINT LeftLeg
    {
      OFFSET 43.7702 0 0
      CHANNELS 3 Zrotation Xrotation Yrotation
      JOINT LeftFoot
      {
        OFFSET 40.6238 0 0
        CHANNELS 3 Zrotation Xrotation Yrotation
        JOINT LeftToeBase
        {
          OFFSET 12.7242 0 0
          CHANNELS 3 Zrotation Xrotation Yrotation
          End Site
          {
            OFFSET 0 0 0
          }
        }
      }
    }
  }
  JOINT RightUpLeg
  {
    OFFSET -8.2249 1.95398 -2.59336
    CHANNELS 3 Zrotation Xrotation Yrotation
    JOINT RightLeg
    {
      OFFSET 43.5653 0 0
      CHANNELS 3 Zrotation Xrotation Yrotation
      JOINT RightFoot
      {
        OFFSET 40.6238 0 0
        CHANNELS 3 Zrotation Xrotation Yrotation
        JOINT RightToeBase
        {
          OFFSET 12.7242 0 0
          CHANNELS 3 Zrotation Xrotation Yrotation
          End Site
          {
            OFFSET 0 0 0
          }
        }
      }
    }
  }
  JOINT Spine
  {
    OFFSET 0.165834 0.87714 6.61349
    CHANNELS 3 Zrotation Xrotation Yrotation
    JOINT Spine1
    {
      OFFSET 7.38963 1.71661e-005 0
      CHANNELS 3 Zrotation Xrotation Yrotation
      JOINT Spine2
      {
        OFFSET 11.9445 1.14441e-005 0
        CHANNELS 3 Zrotation Xrotation Yrotation
        JOINT Spine3
        {
          OFFSET 14.7254 4.19617e-005 0
          CHANNELS 3 Zrotation Xrotation Yrotation
          JOINT Spine4
          {
            OFFSET 10.9679 0 0
            CHANNELS 3 Zrotation Xrotation Yrotation
            JOINT RightShoulder
            {
              OFFSET 2.46616 -1.6653 3.69651
              CHANNELS 3 Zrotation Xrotation Yrotation
              JOINT RightArm
              {
                OFFSET 13.0012 0 0
                CHANNELS 3 Zrotation Xrotation Yrotation
                JOINT RightForeArm
                {
                  OFFSET 28.7848 1.52588e-005 0
                  CHANNELS 3 Zrotation Xrotation Yrotation
                  JOINT RightHand
                  {
                    OFFSET 26.5688 1.52588e-005 0
                    CHANNELS 3 Zrotation Xrotation Yrotation
                    End Site
                    {
                      OFFSET 0 0 0
                    }
                  }
                }
              }
            }
            JOINT LeftShoulder
            {
              OFFSET 2.38034 -1.29275 -3.7523
              CHANNELS 3 Zrotation Xrotation Yrotation
              JOINT LeftArm
              {
                OFFSET 16.3182 6.10352e-005 0
                CHANNELS 3 Zrotation Xrotation Yrotation
                JOINT LeftForeArm
                {
                  OFFSET 27.0901 0 0
                  CHANNELS 3 Zrotation Xrotation Yrotation
                  JOINT LeftHand
                  {
                    OFFSET 24.5451 1.52588e-005 0
                    CHANNELS 3 Zrotation Xrotation Yrotation
                    End Site
                    {
                      OFFSET 0 0 0
                    }
                  }
                }
              }
            }
            JOINT Neck
            {
              OFFSET 5.0226 -0.0266342 0
              CHANNELS 3 Zrotation Xrotation Yrotation
              JOINT Head
              {
                OFFSET 6.69363 2.86102e-005 0
                CHANNELS 3 Zrotation Xrotation Yrotation
                End Site
                {
                  OFFSET 0 0 0
                }
              }
            }
          }
        }
      }
    }
  }
}
MOTION
Frames:	12
Frame Time:	0.0416667
-301.416 62.9406 341.926 152.786 -27.7286 108.167 149.968 56.9172 8.08049 -91.8929 33.1145 -15.7416 -8.92296 -32.0058 -7.2567 137.424 -4.25482 6.85573 167.481 37.304 -25.4257 -108.856 -34.7225 -5.66998 73.1328 -2.07932 7.64717 -14.5951 -68.5473 122.992 -11.6616 6.33431 -82.0591 15.7892 -19.0996 18.9658 4.10785 -18.2629 19.7706 -19.0324 -23.8526 12.2832 0.980288 -23.8526 12.2832 65.8789 -46.8828 -138.211 42.7449 22.0856 87.4129 137.979 -47.3417 -50.1333 2.17341 -1.56627 -62.7892 -93.3191 -61.5061 76.2947 -30.7322 -29.2701 14.7214 17.5365 50.7882 0.0374289 36.5825 -11.7009 -36.4504 -73.1892 -9.5152 12.5791 75.152 7.25283 13.2024 
-301.516 62.9736 342.025 152.54 -27.6913 108.334 149.628 56.7754 8.48229 -91.9384 33.1909 -15.5458 -9.62898 -32.0481 -7.82823 137.655 -4.51748 6.62923 166.243 37.2452 -24.5519 -108.336 -34.8119 -5.15618 75.7224 -3.43204 7.73589 8.59049 -59.303 144.526 -11.6778 6.35397 -82.1026 15.7506 -19.1577 18.8759 4.07145 -18.3246 19.6838 -19.0853 -23.8813 12.1752 0.927395 -23.8813 12.1752 65.8656 -46.879 -138.232 42.6895 22.0509 87.4415 138.09 -47.3051 -50.0403 2.17871 -1.56635 -62.6995 -93.2781 -61.5212 76.352 -30.8106 -29.1355 14.4483 17.4933 51.3427 0.03788 37.2049 -11.8722 -36.3771 -73.1856 -9.32275 12.433 75.2958 7.67195 13.5723 
-301.804 63.0706 342.31 151.837 -27.6007 108.825 148.668 56.3536 9.63458 -92.0835 33.3813 -14.9701 -11.6267 -32.1255 -9.45427 138.288 -5.29061 5.96987 162.836 36.9934 -22.0652 -106.646 -35.0542 -3.67081 82.3394 -6.82477 8.21577 32.3292 -23.3853 160.055 -11.7228 6.41033 -82.2295 15.6388 -19.322 18.6134 3.96614 -18.4997 19.4305 -19.2377 -23.9604 11.8616 0.774949 -23.9604 11.8616 65.828 -46.8652 -138.293 42.5312 21.9497 87.5219 138.417 -47.1953 -49.7706 2.19344 -1.56613 -62.4394 -93.1581 -61.5644 76.5195 -31.0333 -28.7412 13.6653 17.3626 52.9563 0.0392782 38.9826 -12.3356 -36.1059 -73.166 -8.76136 12.0147 75.6957 8.89543 14.6477 
-302.253 63.2391 342.755 150.748 -27.5138 109.624 147.231 55.6518 11.4281 -92.3193 33.5976 -14.0425 -14.6936 -32.1213 -11.9639 139.196 -6.55591 4.91167 158.111 36.338 -18.3216 -103.636 -35.3134 -1.30405 90.4452 -10.778 9.30035 51.4059 24.6444 150.487 -11.7877 6.49793 -82.4323 15.4621 -19.5701 18.1915 3.79963 -18.7651 19.0226 -19.4768 -24.0718 11.363 0.535869 -24.0718 11.363 65.7703 -46.8343 -138.393 42.2841 21.7871 87.644 138.947 -47.0087 -49.337 2.21419 -1.56412 -62.0225 -92.9623 -61.6327 76.7921 -31.3766 -28.0935 12.4331 17.1336 55.56 0.0418397 41.7519 -12.9676 -35.4926 -73.1074 -7.85655 11.3697 76.2767 10.8644 16.362 
-302.92 63.2905 343.372 149.38 -27.5158 110.72 145.681 54.7382 13.6329 -92.9521 33.8936 -12.8287 -18.2755 -31.9821 -15.0293 140.223 -8.2792 3.50212 153.272 35.0433 -14.0185 -99.9026 -35.4895 1.77877 97.9557 -14.1836 10.7536 94.736 50.7337 103.695 -11.8594 6.60955 -82.702 15.2316 -19.8696 17.6265 3.58208 -19.0879 18.4749 -19.785 -24.1896 10.7067 0.227648 -24.1896 10.7067 65.6972 -46.7761 -138.531 41.9638 21.5681 87.7968 139.671 -46.7381 -48.7502 2.23556 -1.55769 -61.4618 -92.6922 -61.723 77.1668 -31.8109 -27.1901 10.8167 16.783 59.0566 0.0460183 45.2951 -13.5828 -34.3561 -72.9778 -6.63583 10.5584 76.9332 13.5081 18.6376 
-303.847 63.0777 344.17 147.877 -27.7101 112.104 144.384 53.7022 16.0162 -94.1878 34.3352 -11.4342 -21.904 -31.7382 -18.3595 141.212 -10.3959 1.80184 149.258 33.1374 -9.77461 -96.2285 -35.5508 5.30481 103.978 -16.7389 12.2119 127.149 30.81 49.0497 -11.9219 6.73647 -83.0269 14.9605 -20.1804 16.9396 3.32577 -19.427 17.8066 -20.1407 -24.2815 9.92769 -0.128052 -24.2815 9.92768 65.6139 -46.6776 -138.708 41.5855 21.2981 87.9689 140.581 -46.3743 -48.0212 2.25051 -1.54349 -60.7697 -92.3471 -61.8331 77.6439 -32.3009 -26.024 8.88279 16.279 63.2758 0.0526182 49.3243 -13.9604 -32.5639 -72.7436 -5.12931 9.6474 77.5371 16.7375 21.403 
-304.92 62.8708 345.1 146.424 -28.2151 113.774 143.364 52.5262 18.5302 -95.6346 33.9552 -9.90697 -25.5337 -30.6113 -21.4852 142.027 -12.81 -0.121073 146.321 30.9812 -5.74528 -92.5797 -35.4541 8.90435 108.116 -18.4236 13.3969 85.6133 -3.8561 11.2777 -11.9557 6.86856 -83.3921 14.6649 -20.4548 16.1583 3.04554 -19.734 17.0428 -20.5179 -24.3102 9.06983 -0.505256 -24.3102 9.06981 65.5258 -46.524 -138.926 41.1641 20.9823 88.1498 141.667 -45.9079 -47.1631 2.25031 -1.51747 -59.9587 -91.9241 -61.9617 78.2262 -32.8069 -24.5881 6.69975 15.5863 67.9472 0.061935 53.4738 -13.8932 -30.1046 -72.3759 -3.37244 8.70443 77.9492 20.4407 24.5989 
-306.126 62.6883 346.154 145.247 -29.1526 115.745 142.839 51.2904 21.0448 -96.979 33.2447 -8.52503 -29.0571 -29.1444 -24.4038 142.568 -15.4012 -2.19686 144.623 28.9577 -2.0417 -89.2691 -35.2571 12.1462 110.661 -19.5073 14.2144 46.0295 -3.61371 -11.3982 -11.9403 6.99608 -83.7812 14.3625 -20.6414 15.3147 2.75744 -19.956 16.2128 -20.8887 -24.2365 8.18319 -0.876099 -24.2365 8.18317 65.4387 -46.2984 -139.188 40.7134 20.6266 88.3294 142.91 -45.3319 -46.195 2.22454 -1.47532 -59.0426 -91.4182 -62.1084 78.92 -33.2871 -22.8799 4.33618 14.6732 72.7113 0.0731391 57.3394 -13.2649 -27.1249 -71.855 -1.40753 7.79521 78.0353 24.4841 28.179 
-307.46 62.5322 347.325 144.573 -30.6007 118.051 142.966 50.0854 23.4695 -97.9617 33.0687 -7.54402 -32.5927 -28.1474 -27.4318 142.783 -18.0447 -4.36257 144.158 27.4209 1.33044 -86.5085 -35.0578 14.6557 111.992 -20.2155 14.6763 33.2131 0.282945 -16.1611 -11.8595 7.11167 -84.1778 14.0674 -20.6986 14.4414 2.47444 -20.0502 15.3469 -21.2308 -24.0307 7.31439 -1.2181 -24.0307 7.31439 65.3589 -45.9828 -139.497 40.2452 20.2364 88.4983 144.282 -44.6472 -45.1443 2.16232 -1.41305 -58.0367 -90.8227 -62.2744 79.7332 -33.7001 -20.9052 1.85616 13.5155 77.1985 0.0897216 60.5886 -12.108 -23.8804 -71.1738 0.720572 6.97717 77.6761 28.721 32.1185 
-308.914 62.4002 348.607 144.607 -32.5536 120.738 143.803 48.9882 25.7463 -98.6354 32.8371 -7.0273 -35.8871 -27.1258 -30.1814 142.665 -20.6308 -6.56553 144.804 26.6035 4.39446 -84.3973 -34.9534 16.2018 112.414 -20.684 14.8309 26.8446 2.429 -17.7658 -11.7067 7.21225 -84.5664 13.7887 -20.605 13.5703 2.20461 -19.9937 14.4757 -21.5307 -23.682 6.50234 -1.51809 -23.682 6.50233 65.2933 -45.5601 -139.855 39.7687 19.8175 88.6492 145.738 -43.8668 -44.0482 2.0544 -1.32809 -56.9594 -90.1302 -62.4612 80.6754 -34.0084 -18.6818 -0.685938 12.1033 81.1162 0.115406 63.0415 -10.5704 -20.6266 -70.3391 2.97005 6.29556 76.7714 33.005 36.4165 
-310.544 62.2478 349.955 147.78 -33.8402 124.24 146.035 47.4275 25.9414 -98.0077 33.0297 -8.46481 -39.0017 -26.2541 -32.7178 142.254 -23.0367 -8.72574 146.681 26.6703 5.02438 -84.3985 -35.63 14.7274 112.284 -21.0297 14.7065 22.9613 3.80315 -18.4346 -11.4942 7.22751 -84.6147 13.4674 -20.2331 13.2598 1.87908 -19.6361 14.1488 -21.7994 -23.2347 6.33118 -1.78679 -23.2347 6.33118 65.2496 -45.0146 -140.263 39.2906 19.3751 88.7751 147.216 -43.0229 -42.9557 1.89576 -1.22046 -55.8323 -89.3325 -62.6708 81.7564 -34.1818 -16.2421 -3.24671 10.4418 84.2805 0.15624 64.6743 -8.84697 -17.5562 -70.451 4.94317 5.67906 61.5158 38.3171 44.4318 
-311.236 62.742 351.878 116.577 -51.6691 117.966 134.404 50.3183 56.138 -108.46 25.899 8.79898 -40.3551 -24.3408 -33.6042 141.325 -25.7231 -11.3496 145.49 23.2046 36.1609 -67.2572 -25.6414 39.113 109.721 -20.5257 14.8838 20.3302 4.63843 -18.2145 -11.0367 7.0471 -88.97 13.9915 -21.3837 5.20356 2.49553 -21.132 6.18016 -21.5741 -21.912 -1.79411 -1.56143 -21.912 -1.79413 65.2359 -44.3327 -140.72 38.8151 18.9142 88.8707 148.633 -42.1724 -41.9263 1.68978 -1.09449 -54.6824 -88.4213 -62.9061 82.9863 -34.2007 -13.636 -5.79396 8.55158 86.6178 0.222612 65.5788 -7.1183 -14.784 -54.6357 12.4037 6.87921 -125.099 17.1937 11.1722 
